<?xml version="1.0" standalone="no"?>
<!DOCTYPE svg PUBLIC "-//W3C//DTD SVG 20010904//EN"
 "http://www.w3.org/TR/2001/REC-SVG-20010904/DTD/svg10.dtd">
<svg version="1.0" xmlns="http://www.w3.org/2000/svg"
 width="31.000000pt" height="31.000000pt" viewBox="0 0 31.000000 31.000000"
 preserveAspectRatio="xMidYMid meet">
<metadata>
Created by potrace 1.16, written by Peter Selinger 2001-2019
</metadata>
<g transform="translate(0.000000,31.000000) scale(0.100000,-0.100000)"
fill="#000000" stroke="none">
<path d="M107 221 c-50 -60 -27 -151 38 -151 27 0 32 9 13 28 -9 9 -9 15 0 24
9 9 12 9 12 -1 0 -15 40 -61 54 -61 4 0 6 9 3 20 -3 11 -1 22 3 25 5 3 4 21
-1 41 -8 26 -7 39 3 52 11 14 10 15 -7 9 l-20 -7 20 16 c20 15 19 16 -5 13
-14 -2 -30 0 -37 4 -15 10 -37 -29 -30 -54 3 -12 0 -19 -9 -19 -20 0 -29 27
-14 45 6 8 10 22 8 31 -2 14 -8 12 -31 -15z"/>
</g>
</svg>
